<svg xmlns="http://www.w3.org/2000/svg" viewBox="0 0 760 270" width="760" height="270" role="img" aria-label="Como cada faixa evapora na pele"><style>
  .bg{fill:#fff}
  .ttl{font:700 15px system-ui,-apple-system,Segoe UI,Roboto,sans-serif;fill:#000}
  .lbl{font:600 12.5px system-ui,sans-serif;fill:#000}
  .sm{font:500 11px system-ui,sans-serif;fill:#333}
  .xs{font:500 10px system-ui,sans-serif;fill:#555}
  .box{fill:#f2f2f2;stroke:#000;stroke-width:1.1}
  .ln{stroke:#000;stroke-width:1.1;fill:none}
  .ar{stroke:#000;stroke-width:1.4;fill:none;marker-end:url(#a)}
  text{fill:#000}
</style>
<defs>
<marker id="a" viewBox="0 0 10 10" refX="9" refY="5" markerWidth="6" markerHeight="6" orient="auto-start-reverse"><path d="M0 0 10 5 0 10z" fill="#000"/></marker>
<pattern id="h1" width="6" height="6" patternTransform="rotate(45)" patternUnits="userSpaceOnUse"><line x1="0" y1="0" x2="0" y2="6" stroke="#000" stroke-width="1.6"/></pattern>
<pattern id="h2" width="6" height="6" patternTransform="rotate(-45)" patternUnits="userSpaceOnUse"><line x1="0" y1="0" x2="0" y2="6" stroke="#000" stroke-width="1"/></pattern>
<pattern id="h3" width="5" height="5" patternUnits="userSpaceOnUse"><circle cx="2" cy="2" r="1" fill="#000"/></pattern>
</defs><rect class="bg" width="760" height="270" rx="10" stroke="#000" stroke-width="0.8"/><text class="ttl" x="20" y="28">Como cada faixa evapora na pele</text><g transform="translate(60,52)"><line class="ln" x1="0" y1="180" x2="640" y2="180"/><line class="ln" x1="0" y1="0" x2="0" y2="180"/><line class="ln" x1="0" y1="180" x2="0" y2="185"/><text class="xs" x="0" y="199" text-anchor="middle">0</text><line class="ln" x1="106" y1="180" x2="106" y2="185"/><text class="xs" x="106" y="199" text-anchor="middle">20 min</text><line class="ln" x1="213" y1="180" x2="213" y2="185"/><text class="xs" x="213" y="199" text-anchor="middle">2 h</text><line class="ln" x1="320" y1="180" x2="320" y2="185"/><text class="xs" x="320" y="199" text-anchor="middle">5 h</text><line class="ln" x1="427" y1="180" x2="427" y2="185"/><text class="xs" x="427" y="199" text-anchor="middle">8 h</text><line class="ln" x1="534" y1="180" x2="534" y2="185"/><text class="xs" x="534" y="199" text-anchor="middle">12 h</text><line class="ln" x1="640" y1="180" x2="640" y2="185"/><text class="xs" x="640" y="199" text-anchor="middle">24 h</text><path d="M0 30 C 40 30, 70 60, 106 130 S 150 175, 200 179" stroke="#000" stroke-width="2.4" stroke-dasharray="none" fill="none"/><line x1="455" y1="10" x2="477" y2="10" stroke="#000" stroke-width="2.4" stroke-dasharray="none"/><text class="xs" x="480" y="14">topo</text><path d="M0 95 C 60 70, 140 60, 213 80 S 300 150, 360 176" stroke="#000" stroke-width="2.0" stroke-dasharray="7 4" fill="none"/><line x1="517" y1="10" x2="539" y2="10" stroke="#000" stroke-width="2.0" stroke-dasharray="7 4"/><text class="xs" x="542" y="14">coração</text><path d="M0 140 C 100 120, 200 108, 320 112 S 520 140, 640 168" stroke="#000" stroke-width="2.0" stroke-dasharray="2.5 3.5" fill="none"/><line x1="579" y1="10" x2="601" y2="10" stroke="#000" stroke-width="2.0" stroke-dasharray="2.5 3.5"/><text class="xs" x="604" y="14">base</text><text class="xs" x="-46" y="10" transform="rotate(-90,-46,10)">intensidade</text></g></svg>